<svg xmlns="http://www.w3.org/2000/svg" xmlns:xlink="http://www.w3.org/1999/xlink" width="500" zoomAndPan="magnify" viewBox="0 0 375 374.999991" height="500" preserveAspectRatio="xMidYMid meet" version="1.0"><defs><clipPath id="ab05595f7a"><path d="M 7.015625 190.246094 L 367.765625 190.246094 L 367.765625 370.246094 L 7.015625 370.246094 Z M 7.015625 190.246094 " clip-rule="nonzero"/></clipPath><clipPath id="30d79bdf5a"><path d="M 7.226562 15.769531 L 367.976562 15.769531 L 367.976562 195.769531 L 7.226562 195.769531 Z M 7.226562 15.769531 " clip-rule="nonzero"/></clipPath><clipPath id="86890ca32d"><path d="M 82.152344 71.410156 L 292.902344 71.410156 L 292.902344 308.410156 L 82.152344 308.410156 Z M 82.152344 71.410156 " clip-rule="nonzero"/></clipPath></defs><g clip-path="url(#ab05595f7a)"><path fill="#8f8f8f" d="M 187.390625 370.246094 C 87.792969 370.246094 7.015625 290.644531 7.015625 190.246094 L 367.765625 190.246094 C 367.765625 290.644531 286.988281 370.246094 187.390625 370.246094 Z M 187.390625 370.246094 " fill-opacity="1" fill-rule="nonzero"/></g><g clip-path="url(#30d79bdf5a)"><path fill="#343434" d="M 187.601562 15.769531 C 287.199219 15.769531 367.976562 95.367188 367.976562 195.769531 L 7.226562 195.769531 C 7.226562 95.367188 88.003906 15.769531 187.601562 15.769531 Z M 187.601562 15.769531 " fill-opacity="1" fill-rule="nonzero"/></g><g clip-path="url(#86890ca32d)"><path fill="#bee719" d="M 237 71.4375 L 264.925781 121.167969 L 292.847656 170.898438 L 259.757812 170.898438 L 259.757812 292.742188 C 259.757812 301.394531 252.472656 308.410156 243.488281 308.410156 L 230.511719 308.410156 C 221.527344 308.410156 214.238281 301.394531 214.238281 292.742188 L 214.238281 170.898438 L 181.148438 170.898438 Z M 138.03125 308.410156 L 165.960938 258.679688 L 193.882812 208.949219 L 160.792969 208.949219 L 160.792969 87.105469 C 160.792969 78.453125 153.511719 71.4375 144.523438 71.4375 L 131.546875 71.4375 C 122.5625 71.4375 115.277344 78.453125 115.277344 87.105469 L 115.277344 208.949219 L 82.1875 208.949219 L 110.113281 258.679688 Z M 138.03125 308.410156 " fill-opacity="1" fill-rule="nonzero"/></g></svg>